<?xml version="1.0" standalone="no"?>
<!DOCTYPE svg PUBLIC "-//W3C//DTD SVG 20010904//EN"
 "http://www.w3.org/TR/2001/REC-SVG-20010904/DTD/svg10.dtd">
<svg version="1.0" xmlns="http://www.w3.org/2000/svg"
 width="500.000000pt" height="500.000000pt" viewBox="0 0 500.000000 500.000000"
 preserveAspectRatio="xMidYMid meet">

<g transform="translate(0.000000,500.000000) scale(0.100000,-0.100000)"
fill="#000000" stroke="none">
<path d="M0 2500 l0 -2500 2500 0 2500 0 0 2500 0 2500 -2500 0 -2500 0 0
-2500z m1465 787 c114 -38 198 -90 290 -182 139 -139 204 -284 212 -475 6
-133 -13 -227 -66 -335 -22 -44 -61 -105 -85 -135 l-46 -55 102 -102 103 -103
-99 0 -99 0 -54 59 -53 60 -84 -45 c-213 -113 -463 -114 -677 -3 -234 122
-381 364 -381 629 0 279 151 519 407 646 120 59 192 74 335 70 90 -3 132 -9
195 -29z m1507 18 c144 -30 256 -93 370 -209 l69 -69 -55 -56 -55 -55 -63 69
c-120 131 -248 189 -413 189 -159 0 -284 -53 -400 -169 -115 -114 -170 -250
-168 -415 2 -155 66 -294 185 -404 177 -165 402 -200 610 -95 128 65 235 203
246 319 l5 50 -207 0 -206 0 0 75 0 75 290 0 290 0 0 -77 c0 -145 -42 -280
-115 -378 -199 -265 -572 -343 -879 -183 -98 52 -222 171 -279 268 -190 327
-93 741 226 959 153 104 365 146 549 106z m1118 -25 c201 -45 302 -166 302
-365 1 -206 -94 -324 -308 -382 l-32 -8 218 -305 217 -305 -90 -3 c-64 -2 -94
1 -103 10 -7 7 -102 144 -212 303 -142 207 -206 291 -221 293 l-21 3 0 -305 0
-306 -75 0 -75 0 0 696 0 697 173 -6 c94 -2 197 -10 227 -17z"/>
<path d="M1158 3170 c-211 -38 -387 -192 -451 -395 -31 -100 -31 -253 2 -348
83 -243 321 -410 561 -394 85 6 186 36 243 73 l38 25 -160 167 -160 167 97 3
97 3 120 -127 121 -127 36 49 c79 108 110 204 110 338 0 58 -6 114 -17 152
-55 191 -203 341 -393 398 -67 19 -183 27 -244 16z"/>
<path d="M3840 2904 l0 -246 108 4 c89 3 116 8 163 30 87 40 129 110 129 212
0 167 -100 246 -311 246 l-89 0 0 -246z"/>
</g>
</svg>
